# Blender 5.1.1
# www.blender.org
mtllib camera.mtl
o Cube
v -1.000000 -0.695113 0.375161
v -1.000000 0.695113 0.375161
v -1.000000 -0.695113 -0.375161
v -1.000000 0.695113 -0.375161
v 1.000000 -0.695113 0.375161
v 1.000000 0.695113 0.375161
v 1.000000 -0.695113 -0.375161
v 1.000000 0.695113 -0.375161
v 0.953715 0.000000 -0.269221
v 1.222936 -0.000000 -0.269221
v 0.953715 -0.158244 -0.217804
v 1.222936 -0.158244 -0.217804
v 0.953715 -0.256044 -0.083194
v 1.222936 -0.256044 -0.083194
v 0.953715 -0.256044 0.083194
v 1.222936 -0.256044 0.083194
v 0.953715 -0.158244 0.217804
v 1.222936 -0.158244 0.217804
v 0.953715 0.000000 0.269221
v 1.222936 -0.000000 0.269221
v 0.953715 0.158244 0.217804
v 1.222936 0.158244 0.217804
v 0.953715 0.256044 0.083194
v 1.222936 0.256044 0.083194
v 0.953715 0.256044 -0.083194
v 1.222936 0.256044 -0.083194
v 0.953715 0.158244 -0.217804
v 1.222936 0.158244 -0.217804
v 1.343063 0.000000 -0.352604
v 1.695667 -0.000000 -0.352604
v 1.343063 -0.207255 -0.285263
v 1.695667 -0.207256 -0.285263
v 1.343063 -0.335346 -0.108961
v 1.695667 -0.335346 -0.108961
v 1.343063 -0.335346 0.108961
v 1.695667 -0.335346 0.108961
v 1.343063 -0.207255 0.285263
v 1.695667 -0.207256 0.285263
v 1.343063 0.000000 0.352604
v 1.695667 -0.000000 0.352604
v 1.343063 0.207256 0.285263
v 1.695667 0.207255 0.285263
v 1.343063 0.335346 0.108961
v 1.695667 0.335346 0.108961
v 1.343063 0.335346 -0.108961
v 1.695667 0.335346 -0.108961
v 1.343063 0.207256 -0.285263
v 1.695667 0.207255 -0.285263
v -1.093576 1.208845 0.233755
v -1.093576 1.208845 -0.233755
v -0.994533 0.904023 0.233755
v -0.994533 0.904023 -0.233755
v -0.735236 0.715632 0.233755
v -0.735236 0.715632 -0.233755
v -0.414726 0.715632 0.233755
v -0.414727 0.715632 -0.233755
v -0.155429 0.904023 0.233755
v -0.155429 0.904023 -0.233755
v -0.056386 1.208845 0.233755
v -0.056386 1.208845 -0.233755
v -0.155429 1.513668 0.233755
v -0.155429 1.513668 -0.233755
v -0.414726 1.702059 0.233755
v -0.414727 1.702059 -0.233755
v -0.735236 1.702059 0.233755
v -0.735236 1.702059 -0.233755
v -0.994533 1.513668 0.233755
v -0.994533 1.513668 -0.233755
v 0.050752 1.202759 0.233755
v 0.050752 1.202759 -0.233755
v 0.149795 0.897936 0.233755
v 0.149795 0.897936 -0.233755
v 0.409093 0.709546 0.233755
v 0.409093 0.709546 -0.233755
v 0.729602 0.709546 0.233755
v 0.729602 0.709546 -0.233755
v 0.988899 0.897936 0.233755
v 0.988899 0.897936 -0.233755
v 1.087942 1.202759 0.233755
v 1.087942 1.202759 -0.233755
v 0.988899 1.507581 0.233755
v 0.988899 1.507581 -0.233755
v 0.729602 1.695972 0.233755
v 0.729602 1.695972 -0.233755
v 0.409093 1.695972 0.233755
v 0.409093 1.695972 -0.233755
v 0.149795 1.507581 0.233755
v 0.149795 1.507581 -0.233755
vn -1.0000 -0.0000 -0.0000
vn -0.0000 -0.0000 -1.0000
vn 1.0000 -0.0000 -0.0000
vn -0.0000 -0.0000 1.0000
vn -0.0000 -1.0000 -0.0000
vn -0.0000 1.0000 -0.0000
vn -0.0000 0.3090 0.9511
vn -0.0000 -0.3090 -0.9511
vn -0.0000 -0.8090 -0.5878
vn -0.0000 -0.3090 0.9511
vn -0.0000 -0.8090 0.5878
vn -0.0000 0.8090 0.5878
vn -0.0000 0.8090 -0.5878
vn -0.0000 0.3090 -0.9511
vn 0.5509 -0.2579 -0.7937
vn -0.5509 0.6752 -0.4905
vn 0.5509 -0.8346 -0.0000
vn 0.5509 -0.6752 -0.4905
vn 0.5509 0.2579 -0.7937
vn 0.5509 0.6752 -0.4905
vn 0.5509 0.8346 -0.0000
vn 0.5509 0.6752 0.4905
vn 0.5509 0.2579 0.7937
vn -0.5509 0.2579 -0.7937
vn -0.9511 -0.3090 -0.0000
vn -0.5878 -0.8090 -0.0000
vn 0.5878 -0.8090 -0.0000
vn 0.9511 -0.3090 -0.0000
vn 0.9511 0.3090 -0.0000
vn 0.5878 0.8090 -0.0000
vn -0.5878 0.8090 -0.0000
vn -0.9511 0.3090 -0.0000
vt 0.375000 0.000000
vt 0.625000 0.000000
vt 0.625000 0.250000
vt 0.375000 0.250000
vt 0.625000 0.500000
vt 0.375000 0.500000
vt 0.625000 0.750000
vt 0.375000 0.750000
vt 0.625000 1.000000
vt 0.375000 1.000000
vt 0.125000 0.500000
vt 0.125000 0.750000
vt 0.875000 0.500000
vt 0.875000 0.750000
vt 1.000000 0.500000
vt 1.000000 1.000000
vt 0.900000 1.000000
vt 0.900000 0.500000
vt 0.800000 1.000000
vt 0.800000 0.500000
vt 0.700000 1.000000
vt 0.700000 0.500000
vt 0.600000 1.000000
vt 0.600000 0.500000
vt 0.500000 1.000000
vt 0.500000 0.500000
vt 0.400000 1.000000
vt 0.400000 0.500000
vt 0.300000 1.000000
vt 0.300000 0.500000
vt 0.200000 1.000000
vt 0.200000 0.500000
vt 0.391068 0.444164
vt 0.250000 0.490000
vt 0.108932 0.444164
vt 0.021746 0.324164
vt 0.021746 0.175836
vt 0.108932 0.055836
vt 0.250000 0.010000
vt 0.391068 0.055836
vt 0.478254 0.175836
vt 0.478254 0.324164
vt 0.100000 1.000000
vt 0.100000 0.500000
vt -0.000000 1.000000
vt -0.000000 0.500000
vt 0.750000 0.490000
vt 0.891068 0.444164
vt 0.978254 0.324164
vt 0.978254 0.175836
vt 0.891068 0.055836
vt 0.750000 0.010000
vt 0.608932 0.055836
vt 0.521746 0.175836
vt 0.521746 0.324164
vt 0.608932 0.444164
vt 0.000000 0.000000
vt 0.108932 0.444164
vt 0.021746 0.324164
vt 0.021746 0.175836
vt 0.108932 0.055836
s 0
f 1/1/1 2/2/1 4/3/1 3/4/1
f 3/4/2 4/3/2 8/5/2 7/6/2
f 7/6/3 8/5/3 6/7/3 5/8/3
f 5/8/4 6/7/4 2/9/4 1/10/4
f 3/11/5 7/6/5 5/8/5 1/12/5
f 8/5/6 4/13/6 2/14/6 6/7/6
f 39/15/7 40/16/7 42/17/7 41/18/7
f 33/18/5 34/17/5 36/19/5 35/20/5
f 9/15/8 10/16/8 12/17/8 11/18/8
f 11/18/9 12/17/9 14/19/9 13/20/9
f 13/20/5 14/19/5 16/21/5 15/22/5
f 37/20/10 38/19/10 40/21/10 39/22/10
f 31/22/9 32/21/9 34/23/9 33/24/9
f 15/22/11 16/21/11 18/23/11 17/24/11
f 17/24/10 18/23/10 20/25/10 19/26/10
f 19/26/7 20/25/7 22/27/7 21/28/7
f 35/24/11 36/23/11 38/25/11 37/26/11
f 29/26/8 30/25/8 32/27/8 31/28/8
f 21/28/12 22/27/12 24/29/12 23/30/12
f 23/30/6 24/29/6 26/31/6 25/32/6
f 12/33/3 10/34/3 28/35/3 26/36/3 24/37/3 22/38/3 20/39/3 18/40/3 16/41/3 14/42/3
f 25/32/13 26/31/13 28/43/13 27/44/13
f 27/44/14 28/43/14 10/45/14 9/46/14
f 9/47/1 11/48/1 13/49/1 15/50/1 17/51/1 19/52/1 21/53/1 23/54/1 25/55/1 27/56/1
f 41/28/12 42/27/12 44/29/12 43/30/12
f 43/30/6 44/29/6 46/31/6 45/32/6
f 36/41/3 34/42/3 32/33/3 30/34/3 48/35/3 46/36/3 44/37/3 42/38/3 40/39/3 38/40/3
f 45/32/13 46/31/13 48/43/13 47/44/13
f 47/44/14 48/43/14 30/45/14 29/46/14
f 22/57/15 41/57/15 39/57/15 20/57/15
f 45/32/16 47/44/16 28/35/16 26/36/16
f 26/57/17 45/57/17 43/57/17 24/57/17
f 24/57/18 43/57/18 41/57/18 22/57/18
f 20/57/19 39/57/19 37/57/19 18/57/19
f 35/57/20 16/57/20 18/57/20 37/57/20
f 16/57/21 35/57/21 33/57/21 14/57/21
f 31/57/22 12/57/22 14/57/22 33/57/22
f 12/57/23 31/57/23 29/57/23 10/57/23
f 29/57/24 10/57/24 28/57/24 47/57/24
f 49/15/25 50/16/25 52/17/25 51/18/25
f 51/18/26 52/17/26 54/19/26 53/20/26
f 53/20/5 54/19/5 56/21/5 55/22/5
f 55/22/27 56/21/27 58/23/27 57/24/27
f 57/24/28 58/23/28 60/25/28 59/26/28
f 59/26/29 60/25/29 62/27/29 61/28/29
f 61/28/30 62/27/30 64/29/30 63/30/30
f 63/30/6 64/29/6 66/31/6 65/32/6
f 52/33/2 50/34/2 68/58/2 66/59/2 64/60/2 62/61/2 60/39/2 58/40/2 56/41/2 54/42/2
f 65/32/31 66/31/31 68/43/31 67/44/31
f 67/44/32 68/43/32 50/45/32 49/46/32
f 49/47/4 51/48/4 53/49/4 55/50/4 57/51/4 59/52/4 61/53/4 63/54/4 65/55/4 67/56/4
f 69/15/25 70/16/25 72/17/25 71/18/25
f 71/18/26 72/17/26 74/19/26 73/20/26
f 73/20/5 74/19/5 76/21/5 75/22/5
f 75/22/27 76/21/27 78/23/27 77/24/27
f 77/24/28 78/23/28 80/25/28 79/26/28
f 79/26/29 80/25/29 82/27/29 81/28/29
f 81/28/30 82/27/30 84/29/30 83/30/30
f 83/30/6 84/29/6 86/31/6 85/32/6
f 72/33/2 70/34/2 88/58/2 86/59/2 84/60/2 82/61/2 80/39/2 78/40/2 76/41/2 74/42/2
f 85/32/31 86/31/31 88/43/31 87/44/31
f 87/44/32 88/43/32 70/45/32 69/46/32
f 69/47/4 71/48/4 73/49/4 75/50/4 77/51/4 79/52/4 81/53/4 83/54/4 85/55/4 87/56/4
